PathFileType	4	(X/Y/Z)	/home/abdul/Desktop/myosuite/custom_workspace/IK/output/S5_12_3.trc
DataRate	CameraRate	NumFrames	NumMarkers	Units	OrigDataRate	OrigDataStartFrame	OrigNumFrames
200.0	200.0	39	3	mm	200.0	1182	1350
Frame#	Time	V_Shoulder			V_Elbow			V_Wrist		
		X1	Y1	Z1	X2	Y2	Z2	X3	Y3	Z3

1182	5.905	-5.591998401319493	730.2233028530604	237.5085347465962	-143.82235515528754	555.180679584778	28.579909158514077	-119.4295278196896	309.5981258408565	24.738149140341324
1183	5.91	-5.66817835736764	730.2141861579427	237.34916420132683	-143.8846869661782	555.1714605667603	28.522446008732377	-119.43407127339624	309.59404153472747	24.748126762892404
1184	5.915	-5.7449230606671575	730.2070034563327	237.1919587709956	-143.94550555679993	555.1622815541078	28.46645759364617	-119.43595286383203	309.5901038332355	24.757918863660905
1185	5.92	-5.822199429870821	730.2017157172507	237.0369856794858	-144.00480242218677	555.1531619154927	28.41192316236529	-119.4352691747324	309.5863251418299	24.767519515060386
1186	5.925	-5.899973816970994	730.1982817510149	236.88430906271392	-144.06257296602467	555.1441195352254	28.358821772084454	-119.43212211551023	309.5827162822296	24.77692444381357
1187	5.93	-5.978212065917957	730.1966583107566	236.73398989322104	-144.11881634815305	555.135170829564	28.307132298099887	-119.42661831514268	309.57928655388946	24.786130857463633
1188	5.935	-6.05687957048499	730.1968001975903	236.58608591202346	-144.17353532377814	555.1263307684671	28.25683344365408	-119.4188685252355	309.5760437972141	24.79513728107017
1189	5.94	-6.135941331259133	730.1986603691324	236.44065156780292	-144.22673607536427	555.1176129024354	28.207903749641353	-119.40898703407372	309.57299445818995	24.80394340408037
1190	5.945	-6.21536201164357	730.2021900510578	236.29773796349355	-144.27842803817344	555.1090293940706	28.160321604198117	-119.39709109335075	309.5701436541154	24.8125499373095
1191	5.95	-6.295105992764651	730.207338851369	236.15739281030116	-144.32862372042027	555.1005910539868	28.114065252194187	-119.38330035914906	309.5674952401274	24.820958479912978
1192	5.955	-6.375137427183927	730.2140548770485	236.01966038916964	-144.37733851900128	555.0923073807046	28.06911280463533	-119.36773634862638	309.56505187623696	24.829171396184396
1193	5.96	-6.455420291323082	730.2222848527596	235.8845815196877	-144.42459053174653	555.0841866041548	28.0254422479826	-119.35052191374098	309.5628150946001	24.83719170197047
1194	5.965	-6.535918436517204	730.2319742412527	235.75219353640912	-144.47040036712366	555.0762357324252	27.983031453390325	-119.33178073322924	309.56078536676904	24.845022960454827
1195	5.97	-6.616595638619654	730.2430673651351	235.6225302725395	-144.51479095230405	555.0684606013841	27.941858185862372	-119.31163682392881	309.5589621706803	24.852669187027605
1196	5.975	-6.69741564608944	730.2555075296569	235.495622050923	-144.55778734047513	555.0608659268188	27.90190011332497	-119.29021407242152	309.557344057155	24.860134762927444
1197	5.98	-6.778342226499961	730.2692371461688	235.37149568224436	-144.59941651825437	555.0534553587331	27.863134815614153	-119.26763578785187	309.55592871569957	24.867424357315787
1198	5.985	-6.859339211415748	730.2841978559007	235.25017447034193	-144.63970721402868	555.0462315374556	27.825539793376166	-119.24402427666105	309.55471303941283	24.874542857421247
1199	5.99	-6.9403705395916875	730.3003306537231	235.13167822451183	-144.67868970800612	555.0391961512183	27.78909247688083	-119.2195004398609	309.5536931888167	24.88149530637312
1200	5.995	-7.021400298456925	730.3175760115465	235.01602327866487	-144.71639564473017	555.0323499948739	27.753770234749304	-119.194183393361	309.5528646544473	24.8882868483285
1201	6.0	-7.102392763853499	730.335874001023	234.9032225171833	-144.75285784876473	555.02569302943	27.719550382600474	-119.16819011175181	309.55222231805385	24.894922680486285
1202	6.005	-7.183312438007197	730.3551644152207	234.79328540730899	-144.7881101442162	555.0192244420907	27.686410191622546	-119.1416350958399	309.5517605122682	24.90140801157372
1203	6.01	-7.264124085715713	730.3753868889481	234.68621803787937	-144.82218717871288	555.0129427065071	27.65432689707969	-119.11463006412899	309.5514730786234	24.907748026386518
1204	6.015	-7.3447927687465295	730.3964810174098	234.5820231642165	-144.85512425241737	555.0068456429528	27.623277706766558	-119.0872836683395	309.55135342381016	24.913947855962075
1205	6.02	-7.42528387844406	730.4183864728894	234.48070025895848	-144.8869571525984	555.0009304781511	27.593239809426723	-119.0597012329638	309.5513945740755	24.920012552966785
1206	6.025	-7.505563166552622	730.4410431191665	234.38224556861442	-144.91772199424193	554.9951939044978	27.56419038315407	-119.0319845187625	309.55158922768	24.925947071882106
1207	6.03	-7.585596774268541	730.4643911233785	234.28665217561107	-144.94745506713127	554.9896321384363	27.536106603799222	-119.00423151001857	309.55192980534036	24.931756253580414
1208	6.035	-7.665351259541198	730.4883710650585	234.19391006558965	-144.97619268977755	554.9842409777566	27.50896565340547	-118.97653622528377	309.5524084986	24.937444813890046
1209	6.04	-7.744793622649145	730.5129240420893	234.104006199704	-145.0039710705331	554.9790158576066	27.482744728701277	-118.94898855127235	309.5530173160767	24.94301733575923
1210	6.045	-7.823891330083309	730.537991773328	234.0169245916612	-145.0308261761714	554.9739519050194	27.457421049678224	-118.92167409948354	309.55374812755053	24.94847826464053
1211	6.05	-7.9026123367751	730.5635166976728	233.93264638923972	-145.05679360816936	554.969043991774	27.43297186828452	-118.89467408506502	309.554592705865	24.95383190673109
1212	6.055	-7.980925106712518	730.5894420693567	233.85114996001494	-145.08190848688173	554.9642867854259	27.40937447726556	-118.86806522736542	309.5555427666226	24.95908242971843
1213	6.06	-8.05879863199249	730.6157120492685	233.77241098101376	-145.10620534374985	554.9596747983587	27.386606219182994	-118.84191967156534	309.5565900056664	24.964233865697604
1214	6.065	-8.136202450362289	730.6422717921213	233.69640253201953	-145.12971802164452	554.9552024347222	27.364644495643937	-118.81630493072159	309.55772613434715	24.96929011594206
1215	6.07	-8.213106661307313	730.6690675293003	233.62309519224172	-145.15247958339808	554.9508640351416	27.34346677677097	-118.79128384751115	309.5589429125841	24.974254957227913
1216	6.075	-8.28948194074646	730.6960466472482	233.55245714006332	-145.174522228541	554.9466539190939	27.323050610942623	-118.766914574917	309.5602321797341	24.97913204942929
1217	6.08	-8.36529955439992	730.7231577612541	233.48445425557838	-145.19587721821813	554.942566424866	27.30337363483173	-118.74325057505949	309.5615858832913	24.983924944120428
1218	6.085	-8.440531369897462	730.7503507845378	233.4190502256279	-145.2165748082229	554.9385959470233	27.284413583766977	-118.72034063534332	309.56299610544596	24.988637093938756
1219	6.09	-8.515149867698076	730.7775769925335	233.35620665104645	-145.2366441900528	554.9347369713302	27.26614830243988	-118.69822890106062	309.56445508753643	24.993271862481436
1220	6.095	-8.58912815089431	730.8047890823015	233.29588315582737	-145.2561134398565	554.9309841070819	27.24855575597593	-118.67695492356742	309.5659552524346	24.997832534526268
